mtllib materials.mtl
v -0.1830004 2.2509 0
v -0.158483 2.2509 0.09149998
v -0.1584823 -2.0801 0.09149998
v -0.1829996 -2.0801 0
v -0.0915004 2.2509 0.1584826
v -0.09149963 -2.0801 0.1584826
v -3.874302E-07 2.2509 0.183
v 3.576279E-07 -2.0801 0.183
v 0.0914996 2.2509 0.1584827
v 0.09150037 -2.0801 0.1584827
v 0.1584822 2.2509 0.09150004
v 0.158483 -2.0801 0.09150004
v 0.1829996 2.2509 0
v 0.1830004 -2.0801 0
v 0.1584822 2.2509 -0.09150004
v 0.158483 -2.0801 -0.09150004
v 0.0914996 2.2509 -0.1584826
v 0.09150037 -2.0801 -0.1584826
v -3.576279E-07 2.2509 -0.183
v 3.874302E-07 -2.0801 -0.183
v -0.09150034 2.2509 -0.1584827
v -0.09149957 -2.0801 -0.1584827
v -0.158483 2.2509 -0.09149998
v -0.1584823 -2.0801 -0.09149992
v 0.3049997 -2.3851 -0.3049999
v 0.3049997 -2.3851 0.305
v 0.305 -2.2021 0.305
v 0.305 -2.2021 -0.3049999
v -0.3049997 -2.3851 -0.3049999
v -0.3049999 -2.2021 -0.3049999
v -0.3049999 -2.2021 0.305
v -0.3049997 -2.3851 0.305
v 0.2439998 -2.2021 0.2440001
v -0.2439998 -2.2021 0.2440002
v -0.2439998 -2.1411 0.2440002
v 0.2439998 -2.1411 0.2440001
v 0.2439998 -2.2021 -0.244
v 0.2439998 -2.1411 -0.244
v -0.2439998 -2.1411 -0.244
v -0.2439998 -2.2021 -0.244
v 0.183 -2.0801 0.183
v -0.1830001 -2.0801 0.183
v -0.183 -2.0801 -0.183
v 0.183 -2.0801 -0.183
v 0.2439999 2.3729 -0.244
v -0.2439998 2.3729 -0.2440003
v -0.2439998 2.3119 -0.2440003
v 0.2439999 2.3119 -0.244
v 0.2439998 2.3729 0.2440001
v 0.2439998 2.3119 0.2440001
v -0.2439999 2.3119 0.2439999
v -0.2439999 2.3729 0.2439999
v 0.183 2.2509 -0.183
v -0.183 2.2509 -0.1830001
v -0.1830001 2.2509 0.183
v 0.183 2.2509 0.1830001
v 0.3049997 2.3729 -0.3049999
v 0.3049997 2.3729 0.305
v 0.305 2.5559 0.305
v 0.305 2.5559 -0.3049999
v -0.3049997 2.3729 -0.3049999
v -0.3049999 2.5559 -0.3049999
v -0.3049999 2.5559 0.305
v -0.3049997 2.3729 0.305
vn -0.9659258 -1.702829E-07 0.2588192
vn -0.7071069 -1.230236E-07 0.7071068
vn -0.2588195 -4.364683E-08 0.9659258
vn 0.2588193 4.556782E-08 0.9659258
vn 0.7071067 1.265015E-07 0.7071069
vn 0.9659258 1.706642E-07 0.2588195
vn 0.9659258 1.702489E-07 -0.2588193
vn 0.7071066 1.229773E-07 -0.707107
vn 0.2588196 4.371682E-08 -0.9659257
vn -0.2588193 -4.716219E-08 -0.9659258
vn -0.7071066 -1.253756E-07 -0.7071069
vn -0.9659258 -1.706961E-07 -0.2588193
vn -4.468661E-07 1 -1.001599E-09
vn 3.509726E-07 -1 1.001588E-09
vn 1 -1.640932E-06 -1.790204E-14
vn -1 -1.589459E-06 1.790204E-14
vn 0 -1 4.569681E-09
vn 0 1 1.172551E-08
vn -1.343678E-08 0 -1
vn 1.343678E-08 0 1
vn 2.777481E-07 1.763096E-07 1
vn -3.346663E-08 -1.222454E-07 -1
vn -2.125245E-08 -1 1.00157E-09
vn -1.92349E-07 1 -1.001569E-09
vn 1 -3.121221E-07 3.297219E-08
vn -1 -5.430007E-08 6.072532E-09
vn 0.7071087 0.7071049 6.313493E-08
vn -4.465967E-08 0.7071059 -0.7071077
vn -0.7071087 0.7071049 -1.873864E-08
vn 7.005904E-09 0.7071068 0.7071068
vn 4.565621E-07 -1.776152E-07 -1
vn -2.122806E-07 1.235509E-07 1
vn -1.107682E-07 1 -2.307219E-09
vn -1.028332E-07 -1 2.307115E-09
vn 1 4.016379E-07 4.438649E-07
vn -1 -3.521575E-08 -4.829097E-07
vn 0.7071087 -0.707105 2.74964E-07
vn -1.078032E-07 -0.7071061 0.7071076
vn -0.7071085 -0.707105 -3.175138E-07
vn 1.967437E-07 -0.7071069 -0.7071068
vn 1 -1.640932E-06 -1.790204E-14
vn -1 -1.589459E-06 1.790204E-14
vn 0 -1 4.569681E-09
vn 0 1 1.172551E-08
vn -1.343678E-08 0 -1
vn 1.343678E-08 0 1
vt 0.01820594 0.3791984
vt 0.008870734 0.3775899
vt 0.08241384 -0.04922044
vt 0.09174906 -0.0476119
vt 0.3046013 0.2239385
vt 0.2975922 0.2303107
vt 0.006249429 -0.09014988
vt 0.01325855 -0.09652214
vt 0.3456737 0.1421115
vt 0.3409678 0.1503326
vt -0.03490829 -0.0648249
vt -0.03020236 -0.07304607
vt 0.3395065 0.1489519
vt 0.3354601 0.157517
vt -0.0561388 -0.0274854
vt -0.05209242 -0.03605046
vt 0.3151698 0.1971427
vt 0.3107927 0.2055436
vt -0.07329945 0.005421632
vt -0.06892237 -0.002979243
vt 0.2473855 0.2823189
vt 0.2413438 0.2896148
vt -0.0922301 0.01338293
vt -0.08618833 0.006086987
vt -0.008870826 0.3775899
vt -0.01820604 0.3791984
vt -0.09174903 -0.04761193
vt -0.08241382 -0.04922047
vt -0.2975923 0.2303106
vt -0.3046014 0.2239384
vt -0.01325851 -0.09652213
vt -0.006249389 -0.09014987
vt -0.3409678 0.1503326
vt -0.3456737 0.1421114
vt 0.03020235 -0.0730461
vt 0.03490828 -0.06482492
vt -0.3354601 0.157517
vt -0.3395065 0.148952
vt 0.05209243 -0.03605044
vt 0.05613881 -0.02748538
vt -0.3107927 0.2055436
vt -0.3151698 0.1971427
vt 0.06892236 -0.002979252
vt 0.07329945 0.005421634
vt -0.2413437 0.2896149
vt -0.2473855 0.2823189
vt 0.08618833 0.006086976
vt 0.09223008 0.01338291
vt 0.09174185 -0.01114108
vt 0.09579702 -0.002580164
vt 0.09502845 0.006861381
vt 0.08964206 0.01465371
vt 0.08108117 0.01870887
vt 0.07163961 0.0179403
vt 0.06384728 0.01255392
vt 0.05979211 0.003993011
vt 0.06056068 -0.005448534
vt 0.06594707 -0.01324086
vt 0.07450797 -0.01729603
vt 0.08394952 -0.01652746
vt -0.08394956 -0.01652756
vt -0.07450802 -0.01729613
vt -0.06594711 -0.01324097
vt -0.06056073 -0.00544864
vt -0.05979215 0.003992908
vt -0.06384732 0.01255381
vt -0.07163965 0.0179402
vt -0.0810812 0.01870877
vt -0.0896421 0.0146536
vt -0.09502848 0.006861275
vt -0.09579706 -0.002580268
vt -0.09174188 -0.01114118
vt -0.1386834 -0.01522866
vt -0.08904562 -0.05068411
vt -0.078409 -0.03579279
vt -0.1280468 -0.0003373399
vt 0.1386834 -0.01522817
vt 0.1280467 -0.0003368864
vt 0.07840906 -0.03579248
vt 0.08904572 -0.05068377
vt -0.09625949 0.03968767
vt -0.116776 -0.01775854
vt -0.05932974 -0.03827506
vt -0.03881324 0.01917115
vt 0.09625947 0.03968769
vt 0.03881323 0.01917117
vt 0.05932974 -0.03827508
vt 0.116776 -0.01775856
vt 0.08541779 -0.03711876
vt 0.06904981 -0.02893474
vt 0.04176978 -0.0834948
vt 0.05813779 -0.09167877
vt -0.08541779 -0.03711876
vt -0.05813779 -0.09167877
vt -0.04176978 -0.0834948
vt -0.06904981 -0.02893474
vt -0.06632178 -0.03439074
vt -0.04449777 -0.07803874
vt -0.03904177 -0.07531074
vt -0.06086577 -0.03166273
vt 0.06632178 -0.03439074
vt 0.06086577 -0.03166274
vt 0.03904177 -0.07531075
vt 0.04449777 -0.07803875
vt -0.0466095 0.01547818
vt -0.09256651 0.0318914
vt -0.1089797 -0.01406557
vt -0.06302269 -0.03047879
vt 0.05440578 0.01178521
vt 0.0667157 -0.02268254
vt 0.1011835 -0.01037263
vt 0.08887354 0.02409513
vt -0.0833728 -0.03224713
vt -0.07982725 -0.02728336
vt -0.1195375 0.001081064
vt -0.123083 -0.003882711
vt 0.0833728 -0.03224711
vt 0.123083 -0.00388267
vt 0.1195375 0.001081098
vt 0.07982726 -0.02728334
vt 0.0006227402 0.06847306
vt 0.01104499 0.06673907
vt 0.03679395 0.09274967
vt 0.03495469 0.1031538
vt 0.1170266 -0.01292717
vt 0.1078305 -0.01812924
vt 0.104152 -0.05454392
vt 0.112122 -0.06148004
vt 0.1195206 -0.04817009
vt 0.1109867 -0.04194101
vt 0.07630026 -0.05362055
vt 0.07327206 -0.06374281
vt 0.01407238 -0.0498207
vt 0.01828809 -0.04013268
vt -0.0006824613 -0.008832859
vt -0.01122166 -0.008087645
vt -0.3428787 0.1702095
vt -0.3647027 0.1265615
vt -0.3592467 0.1238335
vt -0.3374227 0.1674815
vt 0.3428787 0.1702095
vt 0.3374227 0.1674815
vt 0.3592467 0.1238335
vt 0.3647027 0.1265615
vt 0.09256649 0.03189145
vt 0.04660948 0.01547822
vt 0.06302271 -0.03047875
vt 0.1089797 -0.01406552
vt -0.08887354 0.02409511
vt -0.1011835 -0.01037265
vt -0.0667157 -0.02268257
vt -0.05440578 0.01178519
vt 0.1428338 0.3684002
vt 0.1392883 0.3634365
vt 0.1789984 0.335072
vt 0.182544 0.3400358
vt -0.1428337 0.3684003
vt -0.1825439 0.3400359
vt -0.1789983 0.3350721
vt -0.1392881 0.3634365
vt -0.008028121 0.2829452
vt -0.004999944 0.2728229
vt 0.02968649 0.2611434
vt 0.03822046 0.2673725
vt 0.2305861 0.02218722
vt 0.2226162 0.0152511
vt 0.2262946 -0.02116358
vt 0.2354907 -0.02636566
vt -0.2489189 -0.1773254
vt -0.2470796 -0.1669213
vt -0.2728286 -0.1409107
vt -0.2832509 -0.1426446
vt -0.3128585 0.1312711
vt -0.3023193 0.1320163
vt -0.2833488 0.1633161
vt -0.2875645 0.1730042
vt 0.1378691 0.3719462
vt 0.1875069 0.3364907
vt 0.1981435 0.351382
vt 0.1485058 0.3868375
vt -0.1378703 0.3719458
vt -0.148507 0.3868371
vt -0.1981446 0.3513815
vt -0.187508 0.3364902
vt -0.09625949 0.03968766
vt -0.116776 -0.01775854
vt -0.05932974 -0.03827506
vt -0.03881323 0.01917114
vt 0.09625948 0.03968769
vt 0.03881323 0.01917118
vt 0.05932975 -0.03827507
vt 0.116776 -0.01775856
vt -0.3401507 0.1756655
vt -0.3565187 0.1838495
vt -0.3837987 0.1292894
vt -0.3674307 0.1211055
vt 0.3401507 0.1756655
vt 0.3674307 0.1211055
vt 0.3837987 0.1292894
vt 0.3565187 0.1838495
o group1963348611
g mesh1963348611
usemtl mat15
f 4/4/1 3/3/1 2/2/1 1/1/1
f 3/8/2 6/7/2 5/6/2 2/5/2
f 6/12/3 8/11/3 7/10/3 5/9/3
f 8/16/4 10/15/4 9/14/4 7/13/4
f 10/20/5 12/19/5 11/18/5 9/17/5
f 12/24/6 14/23/6 13/22/6 11/21/6
f 14/28/7 16/27/7 15/26/7 13/25/7
f 16/32/8 18/31/8 17/30/8 15/29/8
f 18/36/9 20/35/9 19/34/9 17/33/9
f 20/40/10 22/39/10 21/38/10 19/37/10
f 22/44/11 24/43/11 23/42/11 21/41/11
f 24/48/12 4/47/12 1/46/12 23/45/12
f 1/60/13 2/59/13 5/58/13 7/57/13 9/56/13 11/55/13 13/54/13 15/53/13 17/52/13 19/51/13 21/50/13 23/49/13
f 24/72/14 22/71/14 20/70/14 18/69/14 16/68/14 14/67/14 12/66/14 10/65/14 8/64/14 6/63/14 3/62/14 4/61/14
f 28/76/15 27/75/15 26/74/15 25/73/15
f 32/80/16 31/79/16 30/78/16 29/77/16
f 26/84/17 32/83/17 29/82/17 25/81/17
f 30/88/18 31/87/18 27/86/18 28/85/18
f 29/92/19 30/91/19 28/90/19 25/89/19
f 27/96/20 31/95/20 32/94/20 26/93/20
f 36/100/21 35/99/21 34/98/21 33/97/21
f 40/104/22 39/103/22 38/102/22 37/101/22
f 34/108/23 40/107/23 37/106/23 33/105/23
f 44/112/24 43/111/24 42/110/24 41/109/24
f 37/116/25 38/115/25 36/114/25 33/113/25
f 35/120/26 39/119/26 40/118/26 34/117/26
f 38/124/27 44/123/27 41/122/27 36/121/27
f 39/128/28 43/127/28 44/126/28 38/125/28
f 35/132/29 42/131/29 43/130/29 39/129/29
f 36/136/30 41/135/30 42/134/30 35/133/30
f 48/140/31 47/139/31 46/138/31 45/137/31
f 52/144/32 51/143/32 50/142/32 49/141/32
f 46/148/33 52/147/33 49/146/33 45/145/33
f 56/152/34 55/151/34 54/150/34 53/149/34
f 49/156/35 50/155/35 48/154/35 45/153/35
f 47/160/36 51/159/36 52/158/36 46/157/36
f 50/164/37 56/163/37 53/162/37 48/161/37
f 51/168/38 55/167/38 56/166/38 50/165/38
f 47/172/39 54/171/39 55/170/39 51/169/39
f 48/176/40 53/175/40 54/174/40 47/173/40
f 60/180/41 59/179/41 58/178/41 57/177/41
f 64/184/42 63/183/42 62/182/42 61/181/42
f 58/188/43 64/187/43 61/186/43 57/185/43
f 62/192/44 63/191/44 59/190/44 60/189/44
f 61/196/45 62/195/45 60/194/45 57/193/45
f 59/200/46 63/199/46 64/198/46 58/197/46
